<?xml version="1.0" encoding="UTF-8"?>
<svg width="170px" height="41px" viewBox="0 0 2037 485" version="1.1" xmlns="http://www.w3.org/2000/svg" xmlns:xlink="http://www.w3.org/1999/xlink">
    <g id="Page-1" stroke="none" stroke-width="1" fill="none" fill-rule="evenodd">
        <g id="bumpLogoWhite" transform="translate(50.000000, 53.000000)">
            <text id="B-U-M-P" font-family="PingFang, 'Helvetica Neue', Helvetica, Arial, sans-serif" font-size="303.030303" font-weight="400" fill="#000000">
                <tspan x="794.304153" y="321">B U M P</tspan>
            </text>
            <path d="M314.561217,181.206278 C317.705193,184.225988 320.67537,187.48307 323.467694,190.970697 C330.957424,200.325406 336.777614,211.089778 340.940985,223.132048 C345.130699,235.250512 347.189831,248.307676 347.189831,262.20182 C347.189831,285.525751 342.463944,306.613871 332.845205,325.137794 C323.338677,343.445617 309.961369,358.817683 292.955767,371.021148 C276.576951,382.774822 257.364755,391.506772 235.467921,397.292191 C214.280317,402.890222 191.419884,405.662687 166.920345,405.662687 L14.6394344,405.662687 C-6.5847316,405.662687 -23.7903177,388.457101 -23.7903177,367.232935 C-23.7903177,365.111325 -23.614625,362.993359 -23.2650408,360.900748 L36.0126473,6.06450657 C39.1071605,-12.4592495 55.1366659,-26.0330579 73.9171225,-26.0330579 L227.803146,-26.0330579 C242.282201,-26.0330579 256.741559,-24.3810171 271.146825,-21.0892963 C286.611943,-17.5553904 300.795497,-11.6265518 313.554577,-3.31114906 C327.05439,5.48700759 338.048949,16.986821 346.335474,30.951668 C355.134692,45.780531 359.366391,63.3070027 359.366391,83.1110065 C359.366391,115.038917 350.590793,142.175397 332.697152,163.420975 C327.145665,170.012399 321.093568,175.944377 314.561217,181.206278 Z" id="Bump-Copy" stroke="#000000" stroke-width="52.0661157"></path>
        </g>
    </g>
</svg>